grf
version=1
nRows=16
nColumns=28
inDegrees=no
endheader
time	ground_force_1_vx	ground_force_1_vy	ground_force_1_vz	ground_force_1_px	ground_force_1_py	ground_force_1_pz	ground_moment_1_mx	ground_moment_1_my	ground_moment_1_mz	ground_force_2_vx	ground_force_2_vy	ground_force_2_vz	ground_force_2_px	ground_force_2_py	ground_force_2_pz	ground_moment_2_mx	ground_moment_2_my	ground_moment_2_mz	ground_force_3_vx	ground_force_3_vy	ground_force_3_vz	ground_force_3_px	ground_force_3_py	ground_force_3_pz	ground_moment_3_mx	ground_moment_3_my	ground_moment_3_mz
      0.60000000	      0.64754776	      0.04461134	      2.13074930	    544.41827462	  -1365.49160055	      2.10328379	     -0.05598244	     -0.20243324	   -110.92251545	     -5.04783686	   -207.55499636	  -1871.21380732	    407.16615910	  -1615.50251854	      0.25624764	      0.15560451	      2.01242351	  -2411.43360272	      1.70510584	     -0.64709189	      5.40669252	    428.83457803	   -244.05475439	      0.29301999	     -0.01565831	      0.11502482	     56.01020261
      0.61000000	      0.58001003	      0.13633065	      2.15175613	    552.76850638	  -1347.39234168	      2.06603835	     -0.05455085	     -0.19725656	   -108.08597503	    -28.06858000	   -248.27322060	  -1697.27098979	    409.30514089	  -1618.12032806	      0.25420101	      0.14616092	      1.89029014	  -2265.08443030	      1.39196918	     -0.57846791	      4.86545959	    424.74425309	   -175.63947642	      0.15137611	     -0.06573931	      0.48291618	    235.15127327
      0.62000000	      0.47823280	      0.27087464	      2.12787541	    546.02587845	  -1304.64465606	      1.99142695	     -0.03642955	     -0.13172971	    -72.18078827	    -44.00875850	   -274.40983142	  -1485.61188754	    411.26322840	  -1621.21862325	      0.25174173	      0.12969822	      1.67737897	  -2009.95863732	      1.40050422	     -0.50560359	      4.66548470	    441.25526293	   -173.68022882	      0.15196837	     -0.04517342	      0.33184065	    161.58653628
      0.63000000	      0.30844067	      0.21316234	      1.74508732	    479.86399464	  -1323.86059922	      2.05988780	      0.00166930	      0.00603621	      3.30752049	    -56.25091900	   -282.24975218	  -1238.53966845	    413.17558657	  -1624.59829280	      0.24904468	      0.08547507	      1.10544379	  -1324.62391110	      1.17031044	     -0.59541745	      5.17500547	    429.36559660	   -214.26609028	      0.23199324	     -0.00739103	      0.05429395	     26.43790448
      0.64000000	      0.40144323	      0.34615047	      1.54441209	    458.40873838	  -1206.42888637	      1.85640374	      0.00501544	      0.01813589	      9.93748965	    -58.85131805	   -272.18098041	   -964.95986026	    413.93840743	  -1627.19747207	      0.24692480	      0.03209248	      0.41505001	   -497.34339105	      1.26842486	     -0.54371407	      5.17250690	    437.99312631	   -220.85557988	      0.24793761	     -0.02292643	      0.16841588	     82.00845389
      0.65000000	      0.44406855	      0.50181300	      1.26514698	    452.49312867	  -1149.39604507	      1.75530458	      0.01837378	      0.06643981	     36.40543904	    -55.85887585	   -238.63002068	   -675.63877701	    414.43322337	  -1630.84479907	      0.24391291	     -0.04044248	     -0.52304011	    626.74506579	      1.19117621	     -0.37173905	      5.47945437	    439.03813211	   -204.13896310	      0.21389983	     -0.00919704	      0.06756081	     32.89806832
      0.66000000	      0.11031425	      0.52391063	      1.95314886	    386.88764613	  -1147.44081923	      1.78484730	      0.00959022	      0.03467837	     19.00188135	    -44.61825832	   -173.44022365	   -418.25877762	    414.24825859	  -1637.65186330	      0.23822025	     -0.09894799	     -1.27968825	   1533.41642229	      1.24850334	     -0.69484138	      4.83523075	    419.28615842	   -228.44680436	      0.25829750	     -0.02652701	      0.19486551	     94.88783838
      0.67000000	      0.14208855	      0.72760055	      1.72963033	    334.04035181	  -1060.26725223	      1.65242777	      0.05843234	      0.21129210	    115.77669393	    -30.11376682	   -108.33831669	   -232.29366233	    413.32708455	  -1649.23702125	      0.22849259	     -0.11800070	     -1.52609569	   1828.67990740	      1.36378837	     -0.93506180	      4.97598022	    424.15481416	   -186.43648988	      0.17338451	     -0.02698801	      0.19825198	     96.53684725
      0.68000000	      0.10241233	      0.55273466	      2.42897664	    375.67460126	  -1134.76649207	      1.76737590	      0.02658615	      0.09613587	     52.67728173	    -12.27859886	    -48.64452416	   -111.80154279	    410.47331072	  -1668.82142775	      0.21196459	     -0.08404425	     -1.08693906	   1302.45019101	      1.30013694	     -0.52513711	      5.44832559	    413.38285990	   -222.54100524	      0.24451878	     -0.04881388	      0.35858316	    174.60853766
      0.69000000	      0.30121462	      0.66166074	      1.80351972	    279.08055098	  -1025.25024500	      1.61625998	      0.08652938	      0.31289135	    171.44761419	     -3.60271650	    -27.12719314	    -38.32379442	    408.89497721	  -1680.63204957	      0.20200638	     -0.03538555	     -0.45763911	    548.37677714	      1.36654210	     -0.63007649	      5.15411046	    453.04395928	   -210.73181208	      0.23135467	     -0.03224606	      0.23687720	    115.34501931
      0.70000000	      0.04027081	      0.54903862	      2.06073930	    350.22445066	  -1076.81679995	      1.67446255	      0.01604382	      0.05801468	     31.78891932	      0.80885749	     -4.96609189	     -6.83077147	    465.85801163	  -1719.77108836	      0.17301922	     -0.03539434	     -0.45775278	    548.51298558	      1.50865641	     -0.60925728	      4.61503631	    415.49696657	   -161.66656161	      0.12009558	     -0.03590565	      0.26376026	    128.43545908
      0.71000000	      0.32491135	      0.90660595	      1.76528082	    306.37259035	  -1038.87059359	      1.62734282	      0.08340442	      0.30159145	    165.25587424	      1.06070781	      2.24421597	      0.80529298	   -287.96321746	   -761.82411361	      0.92381618	     -0.17731828	     -2.29324632	   2747.93610955	      1.38207182	     -0.62800053	      6.11827626	    417.73620391	   -251.01284354	      0.30420673	     -0.01202043	      0.08830119	     42.99739665
      0.72000000	      0.48529690	      0.73732063	      2.10970735	    328.32568336	  -1090.33896666	      1.71019274	      0.05813895	      0.21023121	    115.19538182	      1.00701293	      1.79331551	      2.27194945	    222.27335737	  -1519.27114656	      0.32462527	     -0.04165270	     -0.53869174	    645.49998878	      1.34671512	     -0.52870208	      5.27724250	    439.22459263	   -209.21471330	      0.22437573	     -0.04839270	      0.35548920	    173.10196477
      0.73000000	      0.31209223	      0.78867947	      2.54366583	    363.49717976	  -1109.10137743	      1.72668308	      0.05030201	      0.18189271	     99.66740955	      0.76475012	      1.57378260	      1.86373762	    154.30822995	  -1459.25856097	      0.37032218	     -0.04683131	     -0.60566638	    725.75392162	      1.29361751	     -0.79560972	      5.72867270	    412.86135089	   -227.23842124	      0.25401979	     -0.00302668	      0.02223377	     10.82651400
      0.74000000	      0.37129849	      0.78411807	      2.40274366	    362.80140523	  -1107.71847530	      1.72451044	      0.04705973	      0.17016860	     93.24322918	      0.81726923	      1.41433242	      1.30498368	     21.74773892	  -1102.44149364	      0.65954434	     -0.07134437	     -0.92269229	   1105.63764862	      1.40947117	     -0.81823903	      5.98201458	    423.42518940	   -222.10652561	      0.24643396	     -0.02287074	      0.16800678	     81.80924371
      0.75000000	      0.36322647	      0.79228029	      2.45687877	    341.06853701	  -1069.58127242	      1.66587871	      0.07039113	      0.25453524	    139.47160373	      0.77611449	      1.37217669	      1.72423758	    139.43862028	  -1421.57582741	      0.40081020	     -0.04725952	     -0.61120440	    732.38998366	      1.47045535	     -0.88516731	      5.40201572	    431.24668322	   -241.48862540	      0.28842442	     -0.01672496	      0.12286032	     59.82562236
